HIERARCHY
ROOT Hips
{
	OFFSET 0.000000 0.000000 0.000000
	CHANNELS 6 Xposition Yposition Zposition Xrotation Yrotation Zrotation
	JOINT LeftUpLeg_virtual
	{
		OFFSET 0.000000 0.000000 0.000000
		CHANNELS 3 Xrotation Yrotation Zrotation
		JOINT LeftUpLeg
		{
			OFFSET 13.026900 -6.336304 -1.092800
			CHANNELS 3 Xrotation Yrotation Zrotation
			JOINT LeftLeg
			{
				OFFSET 0.524474 -46.096886 9.782700
				CHANNELS 3 Xrotation Yrotation Zrotation
				JOINT LeftFoot
				{
					OFFSET -0.524474 -53.427422 -12.948200
					CHANNELS 3 Xrotation Yrotation Zrotation
					JOINT LeftToeBase
					{
						OFFSET 0.192200 -14.009700 16.364100
						CHANNELS 3 Xrotation Yrotation Zrotation
						JOINT LeftToe_End
						{
							OFFSET -1.784700 -0.561700 9.474800
							CHANNELS 3 Xrotation Yrotation Zrotation
							End Site
							{
								OFFSET 0 0 0
							}
						}
					}
				}
			}
		}
	}
	JOINT RightUpLeg_virtual
	{
		OFFSET 0.000000 0.000000 0.000000
		CHANNELS 3 Xrotation Yrotation Zrotation
		JOINT RightUpLeg
		{
			OFFSET -12.883000 -6.336304 -1.092800
			CHANNELS 3 Xrotation Yrotation Zrotation
			JOINT RightLeg
			{
				OFFSET -0.524587 -46.096825 9.782800
				CHANNELS 3 Xrotation Yrotation Zrotation
				JOINT RightFoot
				{
					OFFSET 0.524587 -53.427383 -12.948300
					CHANNELS 3 Xrotation Yrotation Zrotation
					JOINT RightToeBase
					{
						OFFSET -0.192200 -14.009700 16.364100
						CHANNELS 3 Xrotation Yrotation Zrotation
						JOINT RightToe_End
						{
							OFFSET 1.784700 -0.561700 9.474800
							CHANNELS 3 Xrotation Yrotation Zrotation
							End Site
							{
								OFFSET 0 0 0
							}
						}
					}
				}
			}
		}
	}
	JOINT Spine_virtual
	{
		OFFSET 0.000000 0.000000 0.000000
		CHANNELS 3 Xrotation Yrotation Zrotation
		JOINT Spine
		{
			OFFSET 0.072000 7.257294 -0.789700
			CHANNELS 3 Xrotation Yrotation Zrotation
			JOINT Spine1
			{
				OFFSET 0.000000 12.508769 -0.658067
				CHANNELS 3 Xrotation Yrotation Zrotation
				JOINT Spine1_split
				{
					OFFSET 0.000000 12.508769 -0.658067
					CHANNELS 3 Xrotation Yrotation Zrotation
					JOINT Spine2
					{
						OFFSET 0.000000 12.508769 -0.658067
						CHANNELS 3 Xrotation Yrotation Zrotation
						JOINT Neck_virtual
						{
							OFFSET 0.000000 0.000000 0.000000
							CHANNELS 3 Xrotation Yrotation Zrotation
							JOINT Neck
							{
								OFFSET 0.000000 14.033295 7.520400
								CHANNELS 3 Xrotation Yrotation Zrotation
								JOINT Head
								{
									OFFSET 0.000000 8.198502 5.703100
									CHANNELS 3 Xrotation Yrotation Zrotation
									JOINT HeadTop_End
									{
										OFFSET 0.000000 17.760803 13.332701
										CHANNELS 3 Xrotation Yrotation Zrotation
										End Site
										{
											OFFSET 0 0 0
										}
									}
								}
							}
						}
						JOINT LeftShoulder_virtual
						{
							OFFSET 0.000000 0.000000 0.000000
							CHANNELS 3 Xrotation Yrotation Zrotation
							JOINT LeftShoulder
							{
								OFFSET 6.292450 5.785301 -0.669000
								CHANNELS 3 Xrotation Yrotation Zrotation
								JOINT LeftShoulder_split
								{
									OFFSET 6.292450 5.785301 -0.669000
									CHANNELS 3 Xrotation Yrotation Zrotation
									JOINT LeftArm
									{
										OFFSET 13.907140 -6.093903 1.965100
										CHANNELS 3 Xrotation Yrotation Zrotation
										JOINT LeftForeArm
										{
											OFFSET 34.140198 0.000000 0.000000
											CHANNELS 3 Xrotation Yrotation Zrotation
											JOINT LeftHand
											{
												OFFSET 40.960209 0.000000 0.000000
												CHANNELS 3 Xrotation Yrotation Zrotation
												End Site
												{
													OFFSET 0 0 0
												}
											}
										}
									}
								}
							}
						}
						JOINT RightShoulder_virtual
						{
							OFFSET 0.000000 0.000000 0.000000
							CHANNELS 3 Xrotation Yrotation Zrotation
							JOINT RightShoulder
							{
								OFFSET -6.292450 5.785301 -0.669000
								CHANNELS 3 Xrotation Yrotation Zrotation
								JOINT RightShoulder_split
								{
									OFFSET -6.292450 5.785301 -0.669000
									CHANNELS 3 Xrotation Yrotation Zrotation
									JOINT RightArm
									{
										OFFSET -13.907140 -6.093903 1.965100
										CHANNELS 3 Xrotation Yrotation Zrotation
										JOINT RightForeArm
										{
											OFFSET -34.140198 0.000000 0.000000
											CHANNELS 3 Xrotation Yrotation Zrotation
											JOINT RightHand
											{
												OFFSET -40.960209 0.000000 0.000000
												CHANNELS 3 Xrotation Yrotation Zrotation
												End Site
												{
													OFFSET 0 0 0
												}
											}
										}
									}
								}
							}
						}
					}
				}
			}
		}
	}
}
MOTION
Frames: 10
Frame Time: 0.03333333
-2.398957 116.139229 -2.035290 0.000000 0.000000 0.000000 1.176198 6.393874 6.564327 -10.115786 6.231604 0.304063 16.370917 4.453910 0.089703 -4.757171 0.675675 -5.527839 -2.513186 0.000005 0.000000 0.000000 0.000000 0.000000 1.176198 6.393874 6.564327 -14.003326 -11.553853 -14.098967 23.541582 -0.468619 -1.955956 -10.733985 -8.033996 6.885980 -2.518104 -0.000005 0.000002 0.000000 0.000000 0.000000 1.176198 6.393874 6.564327 8.231339 -0.857555 5.773994 1.991700 -0.360839 1.359549 0.000000 0.000000 0.000000 0.000000 0.000000 0.000000 1.985963 -0.352617 1.364337 1.392017 0.201543 3.879088 -5.265633 -14.205864 -0.762737 0.000000 0.000000 0.000000 1.985963 -0.352617 1.364337 0.629186 -5.254234 -12.915690 0.000000 0.000000 0.000000 5.646128 -4.942454 -42.344550 0.000009 -65.506288 -0.000007 0.000000 0.000000 0.000000 1.985963 -0.352617 1.364337 1.638797 18.786254 11.884606 0.000000 0.000000 0.000000 -22.655562 15.906285 61.287581 -179.987970 88.744921 179.987998 0.000000 0.000000 0.000000 
-2.391674 116.128807 -1.907593 0.000000 0.000000 0.000000 1.173396 6.115501 6.550706 -9.985698 6.271341 0.366581 16.398364 4.633215 0.072157 -4.875036 0.689027 -5.609672 -2.517685 0.000010 0.000002 0.000000 0.000000 0.000000 1.173396 6.115501 6.550706 -13.826257 -10.982829 -13.952304 23.538244 -0.750305 -1.959358 -10.763709 -8.087394 6.974949 -2.518104 -0.000005 0.000002 0.000000 0.000000 0.000000 1.173396 6.115501 6.550706 8.176451 -1.043300 5.771744 1.977286 -0.412823 1.344542 0.000000 0.000000 0.000000 0.000000 0.000000 0.000000 1.971131 -0.404078 1.350294 1.471614 0.251579 3.770398 -5.997184 -13.685526 -0.924695 0.000000 0.000000 0.000000 1.971131 -0.404078 1.350294 0.635355 -5.283651 -12.880635 0.000000 0.000000 0.000000 5.726502 -4.951277 -42.398652 0.000029 -65.564366 0.000027 0.000000 0.000000 0.000000 1.971131 -0.404078 1.350294 1.688120 19.320710 11.981024 0.000000 0.000000 0.000000 -17.246738 18.683093 60.973133 -179.999950 84.868283 179.999964 0.000000 0.000000 0.000000 
-2.315678 116.114403 -1.776081 0.000000 0.000000 0.000000 1.110627 5.969148 6.542317 -9.807650 6.324959 0.376429 16.435602 4.687356 0.043964 -5.064006 0.693920 -5.560796 -2.463929 0.000006 0.000001 0.000000 0.000000 0.000000 1.110627 5.969148 6.542317 -13.544386 -10.385210 -13.849230 23.521935 -1.191612 -1.963279 -10.793410 -8.148256 7.156987 -2.518104 -0.000004 0.000002 0.000000 0.000000 0.000000 1.110627 5.969148 6.542317 8.103957 -1.367959 5.786315 1.966687 -0.503289 1.325315 0.000000 0.000000 0.000000 0.000000 0.000000 0.000000 1.959777 -0.493537 1.332817 1.524711 0.316483 3.633391 -6.840204 -13.129487 -1.161067 0.000000 0.000000 0.000000 1.959777 -0.493537 1.332817 0.638524 -5.362369 -12.762705 0.000000 0.000000 0.000000 5.906800 -5.087489 -42.408829 0.000042 -65.558621 0.000060 0.000000 0.000000 0.000000 1.959777 -0.493537 1.332817 1.812177 19.996176 11.753381 0.000000 0.000000 0.000000 -12.150135 22.247787 60.206041 179.999923 81.797423 -179.999937 0.000000 0.000000 0.000000 
-2.213737 116.110481 -1.661667 0.000000 0.000000 0.000000 1.036097 5.848679 6.494012 -9.627631 6.381469 0.413777 16.456304 4.711068 0.011718 -5.247931 0.697119 -5.510841 -2.383015 -0.000002 -0.000000 0.000000 0.000000 0.000000 1.036097 5.848679 6.494012 -13.215499 -9.779064 -13.715080 23.450988 -1.682873 -1.967014 -10.785769 -8.206274 7.362660 -2.518104 -0.000004 0.000002 0.000000 0.000000 0.000000 1.036097 5.848679 6.494012 8.043245 -1.785817 5.781937 1.960705 -0.619253 1.297403 0.000000 0.000000 0.000000 0.000000 0.000000 0.000000 1.952975 -0.608263 1.307202 1.554709 0.385659 3.484321 -7.572358 -12.570903 -1.431682 0.000000 0.000000 0.000000 1.952975 -0.608263 1.307202 0.638615 -5.466735 -12.525825 0.000000 0.000000 0.000000 6.178441 -5.316452 -42.390975 -0.000000 -65.547174 -0.000011 0.000000 0.000000 0.000000 1.952975 -0.608263 1.307202 1.973435 20.822766 11.448878 0.000000 0.000000 0.000000 -7.453077 26.678278 58.483017 179.999978 79.886289 -179.999991 0.000000 0.000000 0.000000 
-2.082008 116.120804 -1.564484 0.000000 0.000000 0.000000 0.886563 5.694304 6.424634 -9.366921 6.445754 0.464843 16.469254 4.780893 -0.013103 -5.421563 0.699795 -5.462799 -2.295778 -0.000001 0.000001 0.000000 0.000000 0.000000 0.886563 5.694304 6.424634 -12.792224 -9.177357 -13.565697 23.325842 -2.154202 -1.970291 -10.739751 -8.259095 7.575184 -2.518104 -0.000005 0.000002 0.000000 0.000000 0.000000 0.886563 5.694304 6.424634 7.988521 -2.216473 5.737423 1.949550 -0.739108 1.258281 0.000000 0.000000 0.000000 0.000000 0.000000 0.000000 1.941190 -0.727064 1.270344 1.601423 0.445810 3.335897 -8.213465 -12.101378 -1.765317 0.000000 0.000000 0.000000 1.941190 -0.727064 1.270344 0.646575 -5.587139 -12.181946 0.000000 0.000000 0.000000 6.521552 -5.578317 -42.384964 0.000015 -65.581632 0.000019 0.000000 0.000000 0.000000 1.941190 -0.727064 1.270344 2.127746 21.749849 11.226047 0.000000 0.000000 0.000000 -2.955927 31.958223 55.283947 179.999732 79.162097 -179.999718 0.000000 0.000000 0.000000 
-1.909596 116.151558 -1.475822 0.000000 0.000000 0.000000 0.726059 5.326179 6.314588 -9.027830 6.529601 0.539415 16.453863 5.008563 -0.034505 -5.641710 0.707236 -5.397233 -2.198146 -0.000001 -0.000000 0.000000 0.000000 0.000000 0.726059 5.326179 6.314588 -12.367342 -8.575850 -13.383784 23.124958 -2.425512 -1.972380 -10.628193 -8.297114 7.745289 -2.518104 -0.000003 0.000002 0.000000 0.000000 0.000000 0.726059 5.326179 6.314588 7.936220 -2.490337 5.609035 1.926871 -0.814443 1.216389 0.000000 0.000000 0.000000 0.000000 0.000000 0.000000 1.918325 -0.802435 1.229824 1.663243 0.476229 3.195928 -8.807584 -11.887716 -2.187539 0.000000 0.000000 0.000000 1.918325 -0.802435 1.229824 0.654076 -5.745023 -11.870238 0.000000 0.000000 0.000000 6.829693 -5.875780 -42.297166 -0.000015 -65.743118 -0.000032 0.000000 0.000000 0.000000 1.918325 -0.802435 1.229824 2.264671 22.787451 11.057735 0.000000 0.000000 0.000000 1.670478 37.648337 50.461144 179.999759 79.410033 -179.999718 0.000000 0.000000 0.000000 
-1.718328 116.188095 -1.398296 0.000000 0.000000 0.000000 0.519756 4.778139 6.159718 -8.609745 6.635099 0.670191 16.450996 5.395788 -0.062069 -5.908812 0.719880 -5.343055 -2.058992 -0.000001 0.000001 0.000000 0.000000 0.000000 0.519756 4.778139 6.159718 -11.922096 -7.988173 -13.159229 22.889304 -2.518759 -1.973406 -10.479850 -8.322743 7.867691 -2.518104 -0.000005 0.000002 0.000000 0.000000 0.000000 0.519756 4.778139 6.159718 7.906046 -2.557729 5.380303 1.898658 -0.831235 1.165686 0.000000 0.000000 0.000000 0.000000 0.000000 0.000000 1.890430 -0.820288 1.179324 1.702745 0.478172 3.072006 -9.265159 -11.892483 -2.596694 0.000000 0.000000 0.000000 1.890430 -0.820288 1.179324 0.660616 -5.893535 -11.550307 0.000000 0.000000 0.000000 6.955307 -6.285242 -42.258763 -0.000012 -65.958105 -0.000031 0.000000 0.000000 0.000000 1.890430 -0.820288 1.179324 2.374776 24.004276 10.953901 0.000000 0.000000 0.000000 6.640396 43.240866 44.109164 -179.999909 80.544022 179.999909 0.000000 0.000000 0.000000 
-1.506680 116.220558 -1.342499 0.000000 0.000000 0.000000 0.348003 4.122532 5.978372 -8.223016 6.747630 0.814156 16.470016 5.881388 -0.085095 -6.198184 0.732277 -5.306730 -1.873081 0.000007 -0.000002 0.000000 0.000000 0.000000 0.348003 4.122532 5.978372 -11.557034 -7.393506 -12.927288 22.655673 -2.503124 -1.973156 -10.304274 -8.340529 7.965262 -2.518104 -0.000007 0.000002 0.000000 0.000000 0.000000 0.348003 4.122532 5.978372 7.852671 -2.494351 5.077728 1.865525 -0.809644 1.102692 0.000000 0.000000 0.000000 0.000000 0.000000 0.000000 1.857967 -0.800170 1.115702 1.728704 0.463196 2.960012 -9.611186 -12.062893 -2.902717 0.000000 0.000000 0.000000 1.857967 -0.800170 1.115702 0.671565 -6.052863 -11.170689 0.000000 0.000000 0.000000 6.914397 -6.803183 -42.323592 0.000013 -66.147350 -0.000009 0.000000 0.000000 0.000000 1.857967 -0.800170 1.115702 2.470275 25.340488 10.870687 0.000000 0.000000 0.000000 12.017961 48.445371 36.554544 -179.999691 82.373830 179.999704 0.000000 0.000000 0.000000 
-1.278464 116.278137 -1.294239 0.000000 0.000000 0.000000 0.164517 3.437772 5.722800 -7.822973 6.844632 0.992040 16.469869 6.393697 -0.080119 -6.510138 0.743001 -5.205797 -1.699495 0.000001 -0.000001 0.000000 0.000000 0.000000 0.164517 3.437772 5.722800 -11.134845 -6.843018 -12.627025 22.309927 -2.439659 -1.971307 -10.070055 -8.350489 8.049438 -2.518104 -0.000005 0.000002 0.000000 0.000000 0.000000 0.164517 3.437772 5.722800 7.775457 -2.352022 4.751214 1.825064 -0.765803 1.025693 0.000000 0.000000 0.000000 0.000000 0.000000 0.000000 1.818409 -0.757875 1.037536 1.756339 0.423692 2.870609 -9.928005 -12.471218 -3.134685 0.000000 0.000000 0.000000 1.818409 -0.757875 1.037536 0.682448 -6.285219 -10.794461 0.000000 0.000000 0.000000 6.856293 -7.410239 -42.287648 -0.000017 -66.334797 -0.000034 0.000000 0.000000 0.000000 1.818409 -0.757875 1.037536 2.557182 26.745802 10.789163 0.000000 0.000000 0.000000 17.413173 52.893446 28.643325 -179.998844 84.612930 179.998858 0.000000 0.000000 0.000000 
-1.026905 116.354477 -1.271385 0.000000 0.000000 0.000000 -0.046419 2.753641 5.426452 -7.410451 6.952165 1.193796 16.454619 6.903988 -0.065152 -6.765996 0.755953 -5.136289 -1.604344 0.000010 0.000000 0.000000 0.000000 0.000000 -0.046419 2.753641 5.426452 -10.668035 -6.329456 -12.303275 21.886600 -2.350293 -1.969062 -9.784529 -8.355057 8.134118 -2.518104 -0.000002 0.000002 0.000000 0.000000 0.000000 -0.046419 2.753641 5.426452 7.734039 -2.152080 4.419007 1.785552 -0.706628 0.936182 0.000000 0.000000 0.000000 0.000000 0.000000 0.000000 1.779963 -0.700142 0.946527 1.772892 0.351209 2.812340 -10.181619 -13.159582 -3.352564 0.000000 0.000000 0.000000 1.779963 -0.700142 0.946527 0.689432 -6.559872 -10.446863 0.000000 0.000000 0.000000 6.778922 -8.142981 -42.203165 0.000003 -66.414239 0.000027 0.000000 0.000000 0.000000 1.779963 -0.700142 0.946527 2.634325 28.184188 10.712624 0.000000 0.000000 0.000000 22.410124 56.472332 21.098384 179.999950 87.168971 179.999991 0.000000 0.000000 0.000000 
